<mxfile host="app.diagrams.net" modified="2023-08-25T03:44:06.808Z" agent="Mozilla/5.0 (Windows NT 10.0; Win64; x64) AppleWebKit/537.36 (KHTML, like Gecko) Chrome/116.0.0.0 Safari/537.36" etag="8BQd7rE2FzSvRB0J-n4Z" version="21.6.6" type="github">
  <diagram id="C5RBs43oDa-KdzZeNtuy" name="Page-1">
    <mxGraphModel dx="1820" dy="580" grid="1" gridSize="10" guides="1" tooltips="1" connect="1" arrows="1" fold="1" page="1" pageScale="1" pageWidth="827" pageHeight="1169" math="0" shadow="0">
      <root>
        <mxCell id="WIyWlLk6GJQsqaUBKTNV-0" />
        <mxCell id="WIyWlLk6GJQsqaUBKTNV-1" parent="WIyWlLk6GJQsqaUBKTNV-0" />
        <mxCell id="Hwtd7wZDOtUDaoJ4kq75-26" value="" style="edgeStyle=orthogonalEdgeStyle;rounded=0;orthogonalLoop=1;jettySize=auto;html=1;" edge="1" parent="WIyWlLk6GJQsqaUBKTNV-1" source="WIyWlLk6GJQsqaUBKTNV-3" target="Hwtd7wZDOtUDaoJ4kq75-8">
          <mxGeometry relative="1" as="geometry" />
        </mxCell>
        <mxCell id="WIyWlLk6GJQsqaUBKTNV-3" value="Tờ trình mua thiết bị" style="rounded=1;whiteSpace=wrap;html=1;fontSize=12;glass=0;strokeWidth=1;shadow=0;" parent="WIyWlLk6GJQsqaUBKTNV-1" vertex="1">
          <mxGeometry x="-550" y="140" width="120" height="40" as="geometry" />
        </mxCell>
        <mxCell id="Hwtd7wZDOtUDaoJ4kq75-31" value="" style="edgeStyle=orthogonalEdgeStyle;rounded=0;orthogonalLoop=1;jettySize=auto;html=1;" edge="1" parent="WIyWlLk6GJQsqaUBKTNV-1" source="WIyWlLk6GJQsqaUBKTNV-6" target="Hwtd7wZDOtUDaoJ4kq75-30">
          <mxGeometry relative="1" as="geometry" />
        </mxCell>
        <mxCell id="WIyWlLk6GJQsqaUBKTNV-6" value="Duyệt" style="rhombus;whiteSpace=wrap;html=1;shadow=0;fontFamily=Helvetica;fontSize=12;align=center;strokeWidth=1;spacing=6;spacingTop=-4;" parent="WIyWlLk6GJQsqaUBKTNV-1" vertex="1">
          <mxGeometry x="414" y="120" width="100" height="80" as="geometry" />
        </mxCell>
        <mxCell id="Hwtd7wZDOtUDaoJ4kq75-25" value="" style="edgeStyle=orthogonalEdgeStyle;rounded=0;orthogonalLoop=1;jettySize=auto;html=1;" edge="1" parent="WIyWlLk6GJQsqaUBKTNV-1" source="Hwtd7wZDOtUDaoJ4kq75-1" target="WIyWlLk6GJQsqaUBKTNV-3">
          <mxGeometry relative="1" as="geometry" />
        </mxCell>
        <mxCell id="Hwtd7wZDOtUDaoJ4kq75-1" value="Bắt đầu" style="ellipse;whiteSpace=wrap;html=1;" vertex="1" parent="WIyWlLk6GJQsqaUBKTNV-1">
          <mxGeometry x="-770" y="140" width="100" height="40" as="geometry" />
        </mxCell>
        <mxCell id="Hwtd7wZDOtUDaoJ4kq75-24" value="" style="edgeStyle=orthogonalEdgeStyle;rounded=0;orthogonalLoop=1;jettySize=auto;html=1;" edge="1" parent="WIyWlLk6GJQsqaUBKTNV-1" source="Hwtd7wZDOtUDaoJ4kq75-8" target="Hwtd7wZDOtUDaoJ4kq75-13">
          <mxGeometry relative="1" as="geometry">
            <mxPoint x="-70" y="170" as="targetPoint" />
          </mxGeometry>
        </mxCell>
        <mxCell id="Hwtd7wZDOtUDaoJ4kq75-8" value="Người duyệt 1" style="rounded=0;whiteSpace=wrap;html=1;" vertex="1" parent="WIyWlLk6GJQsqaUBKTNV-1">
          <mxGeometry x="-320" y="135" width="110" height="50" as="geometry" />
        </mxCell>
        <mxCell id="Hwtd7wZDOtUDaoJ4kq75-29" value="" style="edgeStyle=orthogonalEdgeStyle;rounded=0;orthogonalLoop=1;jettySize=auto;html=1;entryX=0;entryY=0.5;entryDx=0;entryDy=0;" edge="1" parent="WIyWlLk6GJQsqaUBKTNV-1" source="Hwtd7wZDOtUDaoJ4kq75-10" target="WIyWlLk6GJQsqaUBKTNV-6">
          <mxGeometry relative="1" as="geometry">
            <mxPoint x="370" y="160" as="targetPoint" />
          </mxGeometry>
        </mxCell>
        <mxCell id="Hwtd7wZDOtUDaoJ4kq75-10" value="Người duyệt 2" style="rounded=0;whiteSpace=wrap;html=1;" vertex="1" parent="WIyWlLk6GJQsqaUBKTNV-1">
          <mxGeometry x="180" y="135" width="110" height="50" as="geometry" />
        </mxCell>
        <mxCell id="Hwtd7wZDOtUDaoJ4kq75-27" value="" style="edgeStyle=orthogonalEdgeStyle;rounded=0;orthogonalLoop=1;jettySize=auto;html=1;" edge="1" parent="WIyWlLk6GJQsqaUBKTNV-1" source="Hwtd7wZDOtUDaoJ4kq75-13" target="Hwtd7wZDOtUDaoJ4kq75-10">
          <mxGeometry relative="1" as="geometry" />
        </mxCell>
        <mxCell id="Hwtd7wZDOtUDaoJ4kq75-13" value="Duyệt" style="rhombus;whiteSpace=wrap;html=1;shadow=0;fontFamily=Helvetica;fontSize=12;align=center;strokeWidth=1;spacing=6;spacingTop=-4;" vertex="1" parent="WIyWlLk6GJQsqaUBKTNV-1">
          <mxGeometry x="-50" y="120" width="100" height="80" as="geometry" />
        </mxCell>
        <mxCell id="Hwtd7wZDOtUDaoJ4kq75-33" value="" style="edgeStyle=orthogonalEdgeStyle;rounded=0;orthogonalLoop=1;jettySize=auto;html=1;" edge="1" parent="WIyWlLk6GJQsqaUBKTNV-1" source="Hwtd7wZDOtUDaoJ4kq75-30">
          <mxGeometry relative="1" as="geometry">
            <mxPoint x="644" y="270" as="targetPoint" />
          </mxGeometry>
        </mxCell>
        <mxCell id="Hwtd7wZDOtUDaoJ4kq75-30" value="Đã phê duyệt" style="whiteSpace=wrap;html=1;shadow=0;strokeWidth=1;spacing=6;spacingTop=-4;" vertex="1" parent="WIyWlLk6GJQsqaUBKTNV-1">
          <mxGeometry x="584" y="130" width="120" height="60" as="geometry" />
        </mxCell>
        <mxCell id="Hwtd7wZDOtUDaoJ4kq75-34" value="Đồng ý" style="text;html=1;align=center;verticalAlign=middle;resizable=0;points=[];autosize=1;strokeColor=none;fillColor=none;" vertex="1" parent="WIyWlLk6GJQsqaUBKTNV-1">
          <mxGeometry x="-160" y="130" width="60" height="30" as="geometry" />
        </mxCell>
        <mxCell id="Hwtd7wZDOtUDaoJ4kq75-35" value="Đồng ý" style="text;html=1;align=center;verticalAlign=middle;resizable=0;points=[];autosize=1;strokeColor=none;fillColor=none;" vertex="1" parent="WIyWlLk6GJQsqaUBKTNV-1">
          <mxGeometry x="80" y="130" width="60" height="30" as="geometry" />
        </mxCell>
        <mxCell id="Hwtd7wZDOtUDaoJ4kq75-39" value="Đồng ý" style="text;html=1;align=center;verticalAlign=middle;resizable=0;points=[];autosize=1;strokeColor=none;fillColor=none;" vertex="1" parent="WIyWlLk6GJQsqaUBKTNV-1">
          <mxGeometry x="320" y="120" width="60" height="30" as="geometry" />
        </mxCell>
        <mxCell id="Hwtd7wZDOtUDaoJ4kq75-40" value="Kết thúc" style="ellipse;whiteSpace=wrap;html=1;" vertex="1" parent="WIyWlLk6GJQsqaUBKTNV-1">
          <mxGeometry x="602" y="270" width="84" height="40" as="geometry" />
        </mxCell>
        <mxCell id="Hwtd7wZDOtUDaoJ4kq75-41" value="&lt;b&gt;Quy trình hoạt động của lượt đồ 2 cấp duyệt. Với yêu cầu là bắt buộc&lt;/b&gt;" style="text;html=1;align=center;verticalAlign=middle;resizable=0;points=[];autosize=1;strokeColor=none;fillColor=none;" vertex="1" parent="WIyWlLk6GJQsqaUBKTNV-1">
          <mxGeometry x="-200" y="50" width="420" height="30" as="geometry" />
        </mxCell>
      </root>
    </mxGraphModel>
  </diagram>
</mxfile>
